<svg width="28" height="28" viewBox="0 0 28 28" fill="none" xmlns="http://www.w3.org/2000/svg">
<g opacity="0.7" clip-path="url(#clip0)" filter="url(#filter0_d)">
<path d="M17.5556 10L23.3333 4.22222C24.2222 3.33333 24.2222 2 23.3333 1.22222L22.8889 0.777778C22 -0.111111 20.6667 -0.111111 19.8889 0.777778L14 6.44445L8.22222 0.666667C7.33333 -0.222222 6 -0.222222 5.11111 0.666667L4.66667 1.11111C3.77778 2 3.77778 3.33333 4.66667 4.11111L10.4444 10L4.66667 15.7778C3.77778 16.6667 3.77778 18 4.66667 18.7778L5.11111 19.3333C6 20.2222 7.33333 20.2222 8.11111 19.3333L14 13.5556L19.7778 19.3333C20.6667 20.2222 22 20.2222 22.7778 19.3333L23.2222 18.8889C24.1111 18 24.1111 16.6667 23.2222 15.8889L17.5556 10Z" fill="white"/>
</g>
<defs>
<filter id="filter0_d" x="0" y="0" width="28" height="28" filterUnits="userSpaceOnUse" color-interpolation-filters="sRGB">
<feFlood flood-opacity="0" result="BackgroundImageFix"/>
<feColorMatrix in="SourceAlpha" type="matrix" values="0 0 0 0 0 0 0 0 0 0 0 0 0 0 0 0 0 0 127 0"/>
<feOffset dy="4"/>
<feGaussianBlur stdDeviation="2"/>
<feColorMatrix type="matrix" values="0 0 0 0 0 0 0 0 0 0 0 0 0 0 0 0 0 0 0.25 0"/>
<feBlend mode="normal" in2="BackgroundImageFix" result="effect1_dropShadow"/>
<feBlend mode="normal" in="SourceGraphic" in2="effect1_dropShadow" result="shape"/>
</filter>
<clipPath id="clip0">
<rect width="20" height="20" fill="white" transform="translate(4)"/>
</clipPath>
</defs>
</svg>
